<?xml version="1.0" standalone="no"?>
<!DOCTYPE svg PUBLIC "-//W3C//DTD SVG 20010904//EN"
 "http://www.w3.org/TR/2001/REC-SVG-20010904/DTD/svg10.dtd">
<svg version="1.0" xmlns="http://www.w3.org/2000/svg"
 width="260.000000pt" height="260.000000pt" viewBox="0 0 260.000000 260.000000"
 preserveAspectRatio="xMidYMid meet">
<metadata>
Created by potrace 1.11, written by Peter Selinger 2001-2013
</metadata>
<g transform="translate(0.000000,260.000000) scale(0.100000,-0.100000)"
fill="#000000" stroke="none">
<path d="M1981 2490 c-18 -11 22 -20 41 -9 10 6 20 4 28 -6 7 -8 16 -15 20
-15 11 0 8 30 -4 31 -45 6 -75 6 -85 -1z"/>
<path d="M2088 2484 c-3 -3 -4 -14 -1 -25 4 -14 9 -17 18 -9 13 11 45 4 45
-10 0 -13 -29 -20 -33 -7 -2 7 -3 5 -2 -3 1 -16 8 -16 38 -5 13 6 17 2 18 -16
0 -13 3 -18 6 -11 2 6 9 12 14 12 4 0 6 -6 4 -13 -3 -6 3 -17 14 -24 15 -10
18 -9 17 5 0 9 -8 22 -16 29 -8 7 -11 13 -6 13 5 0 -8 13 -28 29 -24 20 -43
27 -58 23 -14 -3 -19 -1 -14 6 7 12 -6 17 -16 6z m87 -44 c10 -11 16 -20 13
-20 -3 0 -13 9 -23 20 -10 11 -16 20 -13 20 3 0 13 -9 23 -20z"/>
<path d="M1225 2469 c-16 -5 -40 -7 -52 -4 -13 2 -23 0 -23 -5 0 -5 -13 -7
-30 -5 -16 3 -44 7 -61 10 -22 3 -30 1 -26 -8 3 -8 -10 -12 -47 -13 -119 -2
-172 -7 -185 -18 -12 -8 -13 -8 -7 2 6 9 1 12 -16 10 -12 -2 -29 -7 -37 -12
-10 -7 -12 -6 -6 4 6 10 4 12 -10 6 -10 -3 -34 -9 -54 -12 -20 -3 -51 -12 -69
-20 -34 -14 -66 -9 -55 9 4 7 0 8 -12 4 -9 -4 -24 -2 -31 4 -11 9 -14 8 -14
-1 0 -9 -4 -9 -17 1 -15 12 -16 12 -8 -1 4 -8 5 -12 0 -8 -4 4 -14 3 -22 -3
-9 -9 -13 -8 -13 0 0 6 4 11 9 11 13 0 21 39 9 47 -7 3 -8 1 -4 -5 6 -11 -27
-18 -56 -13 -5 0 -8 -3 -8 -7 0 -5 -6 -9 -12 -10 -7 -1 -26 -3 -43 -5 -36 -3
-75 -24 -75 -39 0 -6 10 -4 25 6 41 27 41 18 2 -19 -21 -20 -35 -40 -32 -45 3
-6 -2 -7 -12 -4 -17 5 -17 5 0 -9 16 -13 16 -15 2 -21 -9 -3 -13 -2 -10 4 3 6
1 10 -4 10 -6 0 -12 -4 -12 -10 -2 -15 -6 -30 -9 -32 -1 -2 -4 -13 -5 -26 -2
-21 -1 -22 16 -6 10 9 16 21 13 25 -3 5 2 9 10 9 9 0 16 5 16 11 0 5 4 7 10 4
6 -4 7 1 3 11 -3 10 -2 15 3 12 5 -3 17 3 26 13 12 13 13 19 5 23 -7 4 -2 4
10 2 20 -4 21 -2 12 16 -10 18 -9 18 10 8 17 -8 21 -8 19 2 -2 7 3 12 10 11 6
-2 12 1 12 5 0 5 28 8 63 7 34 -1 65 4 69 9 5 7 8 6 8 -2 0 -7 4 -11 8 -8 4 2
13 1 20 -3 8 -5 -6 -17 -40 -33 -29 -15 -77 -49 -106 -77 -29 -28 -59 -51 -67
-51 -25 0 -34 -32 -17 -58 21 -32 24 -54 9 -64 -9 -6 -6 -14 11 -27 12 -11 22
-23 22 -28 0 -5 14 -20 31 -32 36 -27 63 -83 60 -126 -1 -33 33 -80 50 -69 6
3 3 -8 -5 -25 -15 -28 -15 -33 -1 -55 19 -28 6 -42 -24 -26 -25 13 -31 13 -31
0 0 -5 9 -10 21 -10 11 0 17 -4 14 -10 -4 -6 1 -7 12 -3 10 3 15 3 11 -2 -4
-4 -3 -14 3 -22 6 -7 8 -13 4 -13 -4 0 4 -11 19 -25 24 -22 22 -30 -6 -26 -4
0 -6 -8 -5 -19 1 -10 6 -16 12 -12 17 11 38 11 54 2 11 -7 12 -9 3 -10 -7 0
-10 -5 -7 -11 4 -6 14 -8 24 -4 12 5 13 4 4 -6 -10 -10 -9 -15 3 -23 16 -12
18 -30 10 -86 -6 -44 -24 -93 -25 -67 -1 9 -8 17 -16 17 -8 0 -15 5 -15 10 0
6 -7 10 -15 10 -9 0 -18 7 -21 15 -4 8 -10 15 -16 15 -5 0 -6 -6 -2 -12 4 -7
-2 -5 -12 5 -16 14 -16 19 -5 26 15 10 7 31 -12 31 -9 0 -9 -2 -1 -8 9 -5 8
-11 -2 -20 -12 -11 -14 -10 -11 5 1 10 7 24 11 32 6 9 5 12 -1 8 -18 -11 -22
52 -4 66 14 11 14 10 1 -7 -13 -17 -13 -18 5 -15 23 5 34 39 11 35 -9 -1 -19
-5 -22 -9 -4 -4 -17 -7 -28 -6 -12 0 -16 3 -9 6 10 3 10 7 0 18 -7 7 -15 11
-18 9 -6 -3 -9 13 -11 57 0 19 -5 26 -17 24 -9 -2 -18 -4 -21 -4 -2 -1 1 -6 7
-12 6 -6 9 -18 6 -27 -5 -11 -3 -13 7 -7 10 6 11 4 4 -6 -14 -23 -14 -41 2
-72 9 -16 11 -26 5 -23 -6 4 -11 1 -11 -7 0 -9 -9 -14 -22 -13 -15 1 -22 -4
-20 -13 2 -9 -3 -11 -14 -7 -11 4 -18 0 -21 -14 -3 -11 -10 -17 -16 -13 -6 4
-8 0 -4 -11 4 -10 3 -15 -3 -11 -6 3 -13 -2 -17 -12 -4 -10 -13 -24 -20 -31
-7 -7 -11 -29 -9 -50 2 -20 4 -45 5 -54 0 -10 9 -18 19 -18 14 0 14 -2 3 -9
-12 -8 -12 -13 3 -35 9 -14 21 -26 26 -26 6 0 10 -6 10 -13 0 -17 38 -52 47
-44 3 4 -1 15 -10 24 -8 10 -17 25 -19 33 -2 8 -6 17 -10 20 -4 3 -9 15 -12
25 -8 41 -19 65 -27 65 -5 0 -6 -8 -3 -17 5 -15 4 -15 -4 -3 -13 17 4 43 22
33 7 -4 7 -1 -1 7 -10 11 -15 11 -30 -1 -16 -12 -15 -11 1 9 16 18 22 20 34 9
9 -6 13 -7 9 -1 -3 6 0 19 7 30 12 16 12 20 -3 32 -15 13 -15 13 1 8 10 -3 20
0 24 6 4 6 3 8 -4 4 -6 -3 -13 -2 -17 4 -5 8 14 15 36 12 4 -1 4 9 1 21 -5 19
-3 20 10 9 14 -11 16 -11 12 5 -4 14 2 18 26 20 23 2 30 -2 30 -16 0 -11 7
-22 16 -25 9 -4 14 -9 11 -12 -9 -10 43 -53 58 -48 7 3 15 -2 19 -11 3 -10 12
-15 21 -11 8 3 15 1 15 -4 0 -5 13 -16 28 -24 28 -15 61 -66 42 -66 -6 0 -10
-10 -10 -23 0 -27 45 -71 62 -61 7 4 8 3 4 -4 -6 -10 7 -17 17 -9 2 1 18 -14
35 -34 22 -25 31 -44 28 -60 -2 -13 3 -31 10 -40 16 -18 8 -53 -9 -42 -6 3 -7
1 -3 -5 4 -6 13 -9 20 -6 10 4 16 -5 21 -26 4 -18 18 -41 31 -53 13 -11 24
-31 24 -43 0 -13 8 -25 19 -29 30 -9 53 -79 37 -115 -9 -21 58 -95 76 -84 7 4
10 4 7 0 -3 -3 9 -23 27 -43 23 -25 32 -44 31 -63 -2 -22 -5 -26 -18 -19 -17
9 -29 3 -29 -14 0 -5 7 -7 15 -4 23 9 29 -12 9 -34 -9 -10 -12 -19 -6 -19 6 0
13 6 15 13 3 6 6 -3 6 -20 1 -31 10 -39 36 -33 5 1 7 -2 3 -6 -4 -4 1 -19 12
-34 11 -16 17 -35 13 -48 -3 -14 3 -29 21 -47 32 -32 32 -35 2 -35 -13 0 -26
-3 -29 -7 -2 -5 -2 -3 -1 4 5 19 -12 24 -26 9 -9 -12 -7 -17 7 -24 10 -5 24
-7 32 -4 8 3 11 0 7 -7 -4 -6 -3 -11 2 -11 5 0 12 -9 15 -21 3 -11 15 -23 26
-26 24 -6 25 -8 11 -33 -13 -24 -3 -70 15 -70 7 0 16 7 19 16 6 15 4 15 -11 4
-10 -8 -7 -2 7 12 14 14 30 23 36 21 5 -2 32 19 60 48 27 28 68 70 92 93 29
29 41 48 36 59 -6 16 37 66 60 68 6 1 18 2 26 3 8 2 29 3 47 4 39 2 93 50 71
63 -10 7 -8 9 6 9 16 0 17 2 5 17 -10 11 -10 14 -1 9 14 -9 16 12 2 34 -8 13
-10 12 -10 -2 0 -10 -5 -18 -11 -18 -5 0 -7 -4 -4 -10 3 -5 1 -10 -5 -10 -6 0
-9 -4 -6 -9 3 -5 -1 -12 -10 -15 -8 -3 -12 -2 -9 4 8 13 -10 13 -38 -2 -12 -6
-29 -14 -37 -19 -8 -4 -14 -11 -13 -16 1 -5 -4 -10 -11 -10 -10 0 -9 7 3 29 9
15 19 28 23 28 4 0 22 21 40 47 17 26 42 57 53 68 24 22 49 75 36 75 -4 0 -7
10 -7 22 1 13 -3 29 -8 37 -8 11 -8 13 1 7 8 -4 17 2 25 19 8 18 14 22 20 13
6 -11 8 -10 8 0 0 7 4 11 8 8 5 -3 9 2 9 10 0 9 -4 11 -10 5 -5 -5 -17 -7 -27
-4 -17 5 -17 8 -4 55 9 27 14 68 12 91 -3 39 -1 42 22 43 31 1 80 24 80 37 0
6 3 7 7 4 3 -4 12 1 20 11 10 11 12 12 8 2 -4 -8 1 -6 9 4 9 11 16 17 16 13 0
-4 13 -1 30 8 16 8 32 14 35 13 2 -2 12 7 20 20 17 23 12 47 -7 36 -7 -4 -8
-2 -4 4 13 21 -8 13 -39 -14 -29 -26 -113 -70 -127 -66 -3 1 -9 -5 -12 -13 -5
-13 -1 -13 25 1 19 9 28 11 24 4 -8 -13 -94 -54 -100 -48 -10 10 9 48 26 53
10 4 31 22 46 42 21 28 27 45 25 80 -1 33 4 54 20 76 12 17 17 27 10 23 -7 -4
-12 -3 -12 3 0 5 5 13 10 16 6 4 17 22 25 41 11 26 20 34 40 34 16 0 41 14 67
40 23 22 38 40 33 40 -6 0 -2 5 8 11 9 5 17 16 17 23 0 8 7 16 15 20 9 3 12
12 8 22 -4 11 -2 15 4 11 6 -4 10 3 9 16 -1 12 6 33 16 46 25 33 12 45 -22 19
-28 -20 -29 -23 -14 -40 16 -16 15 -18 -2 -25 -26 -9 -35 -24 -28 -47 5 -16 4
-17 -8 -6 -14 14 -22 50 -10 49 4 -1 17 2 30 6 21 7 21 8 5 20 -22 16 -34 10
-26 -12 4 -10 2 -14 -5 -9 -6 3 -15 -2 -21 -11 -14 -24 -13 -16 3 37 7 25 11
68 9 98 -5 48 -3 52 17 52 14 0 19 4 14 13 -6 9 -5 9 8 0 8 -7 18 -9 22 -5 4
4 11 7 14 8 23 3 72 27 72 35 0 5 6 8 13 6 6 -1 11 5 9 13 -2 8 0 12 4 8 11
-12 64 31 58 47 -5 11 -10 12 -24 3 -10 -7 -16 -16 -13 -21 3 -4 -1 -7 -8 -5
-8 1 -39 -12 -69 -29 -30 -17 -67 -34 -82 -37 -15 -2 -31 -7 -36 -10 -4 -2
-14 -1 -22 5 -10 5 -11 9 -3 9 7 0 15 16 19 35 5 27 14 39 40 51 33 16 61 50
56 67 -1 5 2 6 7 3 5 -3 11 1 15 9 3 8 12 12 20 9 11 -4 13 1 10 25 -4 25 -1
33 18 41 29 12 72 49 66 56 -3 3 -22 -4 -43 -16 -21 -12 -40 -19 -42 -16 -11
11 -5 59 8 67 8 5 10 9 4 9 -10 0 -13 98 -4 115 3 6 7 31 8 56 3 68 -27 99
-123 129 -42 13 -76 27 -76 31 0 4 -12 6 -26 3 -15 -3 -23 -1 -20 5 12 18 -12
21 -190 23 -99 2 -182 7 -185 12 -4 5 -13 5 -20 0 -17 -10 -59 -12 -59 -2 0 4
-5 8 -11 8 -5 0 -7 -5 -3 -12 5 -7 3 -8 -7 -2 -8 5 -22 7 -33 5 -10 -1 -15 2
-12 7 7 12 -13 10 -33 -2 -10 -6 -12 -5 -7 2 4 7 2 12 -3 12 -6 0 -11 -4 -11
-10 0 -5 -5 -10 -11 -10 -5 0 -8 4 -5 8 6 11 -10 11 -49 1z m-51 -77 c2 -4 -5
-9 -17 -9 -17 -2 -19 0 -7 7 18 12 18 12 24 2z m-124 -12 c0 -5 -2 -10 -4 -10
-3 0 -8 5 -11 10 -3 6 -1 10 4 10 6 0 11 -4 11 -10z m-135 -10 c3 -6 -1 -7 -9
-4 -18 7 -21 14 -7 14 6 0 13 -4 16 -10z m99 -1 c3 -3 -12 -5 -34 -4 -21 0
-41 2 -44 5 -2 3 13 5 34 5 21 0 41 -3 44 -6z m-164 -9 c0 -5 -2 -10 -4 -10
-3 0 -8 5 -11 10 -3 6 -1 10 4 10 6 0 11 -4 11 -10z m66 -63 c4 -3 -4 -4 -16
-2 -30 6 -40 16 -12 12 12 -2 24 -6 28 -10z m48 1 c-3 -4 -11 -5 -19 -1 -21 7
-19 12 4 10 11 0 18 -5 15 -9z m363 -50 c4 -28 -6 -18 -12 12 -2 12 -1 20 2
16 4 -4 8 -16 10 -28z m-348 -18 c5 0 15 9 22 21 l14 21 20 -24 20 -23 -24 20
-24 20 7 -25 c3 -14 3 -20 0 -13 -4 9 -10 10 -24 1 -15 -10 -17 -15 -7 -27 8
-10 3 -9 -15 3 -32 21 -36 28 -10 20 9 -3 6 2 -8 10 -19 12 -21 15 -7 16 9 0
18 6 18 13 1 6 4 2 6 -10 2 -13 8 -23 12 -23z m300 17 c0 -9 -2 -8 -6 1 -2 6
-10 9 -15 6 -7 -4 -8 -2 -4 5 9 13 26 5 25 -12z m148 6 c2 -6 -1 -14 -6 -18
-7 -3 -8 0 -5 9 4 11 0 13 -15 9 -12 -3 -21 -10 -21 -17 0 -6 -4 -4 -9 4 -6 8
-8 17 -6 20 6 10 59 4 62 -7z m-201 -18 c-1 -8 -5 -17 -8 -21 -5 -4 -4 16 1
34 3 9 9 -1 7 -13z m54 -15 c-8 -5 -19 -10 -25 -10 -5 0 -3 5 5 10 8 5 20 10
25 10 6 0 3 -5 -5 -10z m-952 -45 c-3 -3 -9 2 -12 12 -6 14 -5 15 5 6 7 -7 10
-15 7 -18z m1302 -155 l0 -50 -150 0 -150 0 2 -186 3 -186 64 -23 c35 -13 80
-36 100 -53 38 -31 86 -115 95 -169 l6 -33 -59 0 -58 0 -7 38 c-3 20 -14 51
-25 68 -20 33 -100 79 -113 66 -5 -5 -7 -79 -6 -166 l3 -157 66 -28 c121 -51
180 -116 194 -212 26 -176 -152 -301 -382 -268 -151 21 -249 106 -277 242 l-6
27 59 0 58 0 7 -42 c8 -51 67 -112 123 -127 61 -17 173 -13 218 8 58 26 77 53
83 112 9 100 -25 131 -224 200 -139 48 -192 77 -238 131 -111 130 -30 329 150
369 l54 12 0 189 0 188 -145 0 -145 0 0 50 0 50 350 0 350 0 0 -50z m375 -520
c3 -5 1 -10 -4 -10 -6 0 -11 5 -11 10 0 6 2 10 4 10 3 0 8 -4 11 -10z m-1687
-35 c-3 -3 -9 2 -12 12 -6 14 -5 15 5 6 7 -7 10 -15 7 -18z m1610 -10 c-3 -3
-9 2 -12 12 -6 14 -5 15 5 6 7 -7 10 -15 7 -18z m-1643 -55 c3 -5 1 -10 -5
-10 -6 0 -9 -3 -7 -7 3 -5 -6 -9 -19 -9 -13 -1 -24 2 -24 7 0 5 3 8 8 8 19 -3
33 2 27 11 -3 6 -2 10 4 10 5 0 13 -4 16 -10z m-11 -155 c3 -8 1 -15 -3 -15
-5 0 -11 7 -15 15 -3 8 -1 15 3 15 5 0 11 -7 15 -15z m47 -72 c13 -16 12 -17
-3 -4 -17 13 -22 21 -14 21 2 0 10 -8 17 -17z m1569 -73 c0 -5 -5 -10 -11 -10
-5 0 -7 5 -4 10 3 6 8 10 11 10 2 0 4 -4 4 -10z m-956 -358 c3 -5 -1 -9 -9 -9
-8 0 -12 4 -9 9 3 4 7 8 9 8 2 0 6 -4 9 -8z m681 -122 c3 -6 -1 -7 -9 -4 -18
7 -21 14 -7 14 6 0 13 -4 16 -10z m-85 -184 c0 -3 -4 -8 -10 -11 -5 -3 -10 -1
-10 4 0 6 5 11 10 11 6 0 10 -2 10 -4z"/>
<path d="M1163 1480 c-52 -23 -83 -70 -83 -125 0 -55 27 -95 88 -128 l51 -27
0 150 c1 82 -2 150 -6 150 -5 0 -27 -9 -50 -20z"/>
<path d="M2030 2470 c0 -5 5 -10 11 -10 5 0 7 5 4 10 -3 6 -8 10 -11 10 -2 0
-4 -4 -4 -10z"/>
<path d="M473 2455 c0 -8 4 -12 9 -9 5 3 6 10 3 15 -9 13 -12 11 -12 -6z"/>
<path d="M2322 2391 c-10 -6 -10 -10 2 -21 9 -7 13 -17 9 -23 -3 -6 -1 -7 6
-3 6 4 9 12 6 17 -4 5 -2 9 4 9 5 0 11 -3 14 -7 2 -5 2 -3 1 4 -2 9 4 10 21 3
14 -5 25 -7 25 -4 0 4 7 1 15 -6 9 -7 15 -8 15 -2 0 23 -76 37 -99 18 -12 -9
-13 -8 -8 7 7 19 7 20 -11 8z"/>
<path d="M2442 2370 c7 -10 16 -17 20 -14 4 3 5 -2 2 -10 -3 -9 -12 -12 -21
-9 -10 4 -14 2 -9 -5 3 -6 -5 -23 -19 -38 -13 -14 -22 -31 -18 -37 3 -5 2 -7
-4 -4 -12 8 -65 -48 -55 -58 4 -4 -1 -5 -12 -3 -12 2 -20 -3 -21 -14 -3 -14 1
-15 21 -6 13 6 24 17 24 25 0 7 3 12 8 12 17 -3 30 2 50 19 11 9 34 28 52 42
32 26 65 80 49 80 -5 0 -8 6 -6 13 1 7 -7 11 -21 10 -13 -2 -21 1 -18 5 2 4
-4 8 -14 9 -17 1 -18 -1 -8 -17z m48 -49 c0 -4 -6 -8 -14 -8 -8 0 -12 6 -9 14
5 13 23 9 23 -6z m-49 -34 c-10 -9 -11 -8 -5 6 3 10 9 15 12 12 3 -3 0 -11 -7
-18z m-16 -16 c3 -5 2 -12 -3 -15 -5 -3 -9 1 -9 9 0 17 3 19 12 6z m-35 -35
c0 -2 -7 -7 -16 -10 -8 -3 -12 -2 -9 4 6 10 25 14 25 6z"/>
<path d="M2399 2322 c9 -7 10 -11 2 -15 -7 -4 -8 -5 0 -3 15 2 13 20 -3 24
-10 3 -10 2 1 -6z"/>
<path d="M2367 2276 c-4 -10 -1 -13 9 -9 15 6 19 23 5 23 -5 0 -11 -7 -14 -14z"/>
<path d="M2272 2170 c-7 -14 -11 -18 -8 -9 3 12 -1 15 -15 12 -10 -3 -19 -10
-19 -15 0 -5 -6 -6 -12 -2 -9 5 -9 3 1 -9 7 -9 18 -14 25 -10 22 14 38 11 43
-8 7 -25 19 -25 19 0 0 11 -4 18 -7 15 -4 -2 -9 8 -11 23 l-3 28 -13 -25z"/>
<path d="M291 2137 c-6 -8 -7 -18 -3 -22 4 -5 -1 -5 -10 -2 -10 3 -24 0 -32
-8 -8 -8 -18 -15 -22 -15 -3 0 -15 -10 -25 -22 -11 -11 -19 -17 -19 -13 0 4
-9 -2 -20 -15 -11 -13 -20 -19 -20 -14 0 5 -7 -1 -15 -13 -19 -27 -15 -58 13
-83 22 -21 52 -27 52 -10 0 5 -8 7 -17 4 -15 -5 -15 -4 -3 4 20 15 32 4 24
-21 -3 -12 -3 -19 1 -15 5 4 14 0 21 -10 8 -10 13 -12 14 -4 0 10 4 10 19 0
11 -7 17 -17 13 -23 -3 -5 2 -4 11 4 13 11 17 11 17 1 0 -8 3 -10 6 -7 11 11
-16 36 -32 30 -8 -3 -14 0 -14 7 0 7 -7 10 -15 7 -17 -7 -47 46 -38 68 7 21
23 8 17 -13 -5 -14 -4 -14 4 -2 6 8 8 18 6 22 -3 4 3 8 13 9 15 0 14 2 -4 9
-13 5 -21 15 -19 22 1 7 1 9 -2 5 -2 -4 -10 -3 -16 2 -9 8 -13 7 -13 -4 0 -8
3 -12 7 -10 4 2 7 -2 7 -10 0 -10 -4 -12 -12 -5 -7 5 -16 6 -21 2 -4 -4 -3 0
3 8 6 8 12 20 12 25 1 6 4 10 9 10 4 0 18 11 30 23 16 16 31 22 45 18 21 -5
21 -4 4 9 -18 13 -18 14 4 17 12 2 28 13 37 26 15 24 2 31 -17 9z m-149 -159
c-6 -6 -12 -6 -17 3 -5 8 -4 10 3 5 7 -4 12 0 13 11 0 12 2 13 6 5 3 -8 1 -18
-5 -24z m48 -6 c0 -10 -22 -32 -32 -32 -13 0 -9 28 5 33 19 8 27 8 27 -1z"/>
<path d="M2176 2135 c-19 -19 -22 -32 -3 -17 6 6 15 11 20 11 8 1 11 11 4 17
-3 3 -12 -2 -21 -11z"/>
<path d="M2299 2079 c-7 -25 -4 -67 4 -62 6 4 8 0 4 -9 -6 -18 1 -30 14 -22 5
3 4 14 -1 25 -8 14 -7 19 1 19 8 0 7 5 -2 17 -8 9 -12 18 -11 20 2 3 1 7 -2
11 -3 3 -7 3 -7 1z"/>
<path d="M233 2038 c-2 -16 1 -18 10 -9 7 7 8 14 1 21 -6 6 -10 2 -11 -12z"/>
<path d="M255 2020 c-3 -5 -1 -10 4 -10 6 0 11 5 11 10 0 6 -2 10 -4 10 -3 0
-8 -4 -11 -10z"/>
<path d="M236 1953 c-6 -14 -5 -15 5 -6 7 7 10 15 7 18 -3 3 -9 -2 -12 -12z"/>
<path d="M292 1927 c-12 -14 27 -102 45 -102 6 0 15 -4 20 -9 5 -5 3 -6 -4 -2
-9 5 -11 2 -7 -8 3 -9 10 -13 15 -10 5 3 9 0 9 -6 0 -15 26 -41 34 -33 3 4 6
-1 6 -10 0 -19 8 -21 30 -7 13 8 13 10 -2 10 -9 0 -20 9 -23 20 -4 11 -11 18
-16 15 -5 -4 -9 2 -9 13 0 10 -8 27 -17 38 -10 11 -23 29 -30 40 -6 10 -16 18
-21 17 -6 -2 -9 6 -7 17 5 24 -9 34 -23 17z"/>
<path d="M2304 1928 c3 -10 1 -18 -5 -18 -6 0 -9 -7 -5 -15 3 -8 -2 -19 -12
-24 -9 -6 -13 -11 -8 -11 4 0 1 -11 -7 -24 -15 -22 -15 -24 3 -19 12 3 16 10
13 21 -5 11 -3 13 7 7 10 -6 12 -4 7 8 -3 9 -2 17 4 19 14 5 19 43 7 59 -8 11
-9 10 -4 -3z"/>
<path d="M2211 1656 c-6 -8 -11 -18 -10 -22 3 -20 -14 -53 -25 -47 -6 3 -8 3
-4 -2 4 -4 1 -14 -7 -22 -8 -8 -15 -20 -15 -26 0 -7 6 -3 12 7 11 19 11 19 26
0 11 -15 13 -15 9 -2 -3 9 0 19 8 21 8 4 12 19 10 44 -1 21 2 44 7 51 6 6 8
12 5 12 -2 0 -10 -6 -16 -14z m-1 -80 c0 -2 -7 -7 -16 -10 -8 -3 -12 -2 -9 4
6 10 25 14 25 6z"/>
<path d="M2075 1649 c-10 -15 3 -25 16 -12 7 7 7 13 1 17 -6 3 -14 1 -17 -5z"/>
<path d="M2171 1527 c-1 -10 -5 -15 -11 -12 -5 3 -10 1 -10 -4 0 -6 5 -11 12
-11 6 0 8 -3 5 -6 -4 -4 -14 -1 -24 7 -15 12 -16 12 -10 -5 6 -16 5 -17 -8 -6
-13 11 -14 10 -8 -5 5 -14 3 -17 -9 -12 -13 5 -16 0 -12 -21 3 -19 2 -23 -5
-13 -11 16 -34 5 -24 -12 5 -9 3 -9 -8 0 -13 10 -15 8 -15 -12 0 -14 4 -25 8
-25 4 0 8 4 8 9 0 5 16 15 35 22 23 9 31 16 22 21 -9 6 -8 8 3 8 8 0 27 13 41
28 20 20 24 32 18 47 -7 18 -8 18 -8 2z"/>
<path d="M2020 1410 c12 -8 10 -10 -10 -10 -18 0 -21 -3 -12 -9 11 -7 11 -9
-2 -14 -8 -3 -17 -1 -20 6 -2 7 -5 4 -5 -6 -1 -10 -5 -15 -11 -12 -5 3 -10 1
-10 -5 0 -6 -4 -9 -9 -5 -5 3 -12 2 -15 -3 -2 -4 6 -8 20 -8 13 0 24 4 24 8 0
4 7 8 15 8 8 0 24 9 35 20 21 21 19 40 -3 40 -7 0 -6 -4 3 -10z"/>
<path d="M2073 1394 c-3 -7 -13 -16 -23 -19 -22 -7 -33 -32 -18 -41 7 -4 8 -3
4 4 -4 7 -1 12 6 12 11 0 68 45 68 54 0 9 -33 0 -37 -10z"/>
<path d="M305 1380 c-3 -6 1 -7 9 -4 18 7 21 14 7 14 -6 0 -13 -4 -16 -10z"/>
<path d="M2164 1382 c3 -5 0 -13 -6 -15 -9 -4 -10 -6 -1 -6 17 -1 25 16 12 25
-7 4 -9 3 -5 -4z"/>
<path d="M1990 1340 c0 -5 5 -10 11 -10 5 0 7 5 4 10 -3 6 -8 10 -11 10 -2 0
-4 -4 -4 -10z"/>
<path d="M2147 1330 c-3 -11 0 -20 5 -20 6 0 5 -8 -3 -17 -7 -10 -9 -15 -5
-11 5 4 14 0 21 -8 11 -15 12 -15 12 0 0 9 -5 16 -10 16 -5 0 -4 7 3 15 7 9
10 18 6 22 -3 3 -6 0 -6 -7 0 -7 -3 -10 -6 -7 -4 4 -1 13 6 22 10 12 10 15 -3
15 -8 0 -17 -9 -20 -20z"/>
<path d="M1930 1321 c0 -6 4 -13 10 -16 6 -3 7 1 4 9 -7 18 -14 21 -14 7z"/>
<path d="M435 1302 c6 -4 11 -16 13 -27 2 -11 12 -31 23 -45 11 -14 22 -33 26
-42 3 -10 11 -18 18 -18 8 0 17 -9 20 -20 3 -11 12 -20 20 -20 7 0 15 -7 19
-15 3 -8 12 -15 21 -15 8 0 15 -5 15 -11 0 -5 4 -8 9 -5 5 3 12 -1 15 -10 3
-8 10 -12 16 -9 5 3 10 2 10 -4 0 -6 6 -8 13 -5 20 7 18 42 -3 49 -10 3 -21
13 -24 21 -6 15 -9 15 -31 0 -14 -9 -25 -12 -25 -6 0 5 5 10 10 10 6 0 10 5
10 10 0 6 -7 10 -16 10 -8 0 -12 5 -9 10 3 6 1 10 -5 10 -6 0 -8 5 -4 12 4 6
3 9 -2 6 -14 -9 -56 11 -49 22 3 6 -3 14 -14 18 -11 4 -21 12 -21 17 -1 6 -6
9 -11 8 -5 -2 -9 5 -9 15 0 20 -18 42 -34 42 -7 0 -8 -3 -1 -8z m235 -220 c0
-5 -7 -9 -15 -9 -8 0 -12 4 -9 9 3 4 9 8 15 8 5 0 9 -4 9 -8z"/>
<path d="M2186 1263 c-5 -12 -9 -14 -18 -5 -15 15 -28 15 -28 1 0 -5 5 -7 10
-4 17 10 11 -7 -7 -22 -12 -10 -13 -12 -3 -8 8 4 6 0 -4 -9 -10 -8 -23 -13
-28 -10 -5 3 -12 -3 -15 -14 -3 -14 -11 -18 -24 -15 -13 4 -19 1 -17 -8 2 -7
-2 -13 -9 -14 -6 0 -15 -3 -19 -7 -10 -11 37 0 64 14 12 6 21 17 18 23 -2 7 8
11 28 10 20 0 30 5 29 13 -2 6 1 12 7 12 5 0 16 14 25 30 9 17 11 30 6 30 -5
0 -12 -8 -15 -17z"/>
<path d="M1904 1178 c-2 -4 7 -5 21 -2 29 5 34 -13 8 -31 -15 -11 -15 -15 -4
-29 11 -13 11 -19 0 -33 -12 -16 -12 -17 2 -6 9 7 18 10 22 7 3 -3 10 3 16 14
9 17 8 19 -10 15 -24 -7 -22 16 4 35 17 13 25 38 8 27 -5 -3 -12 -1 -16 4 -6
11 -44 10 -51 -1z"/>
<path d="M2134 1173 c2 -13 -2 -24 -11 -27 -12 -5 -13 -9 -3 -21 10 -12 9 -15
-4 -15 -23 0 -20 -15 4 -17 11 -1 19 1 19 5 -1 4 0 9 1 12 1 3 3 12 5 20 2 8
7 24 11 34 5 13 4 17 -3 13 -6 -4 -14 -1 -17 5 -4 7 -4 3 -2 -9z"/>
<path d="M1850 1158 c0 -11 12 -10 30 2 12 7 10 9 -8 7 -12 0 -22 -5 -22 -9z"/>
<path d="M1810 1156 c0 -2 7 -7 16 -10 8 -3 12 -2 9 4 -6 10 -25 14 -25 6z"/>
<path d="M1990 1120 c0 -5 5 -10 10 -10 6 0 10 5 10 10 0 6 -4 10 -10 10 -5 0
-10 -4 -10 -10z"/>
<path d="M447 1089 c-9 -6 -15 -15 -12 -20 4 -5 11 -7 16 -4 5 4 9 1 9 -4 0
-6 -5 -11 -10 -11 -6 0 -5 -6 2 -14 10 -11 16 -11 27 -2 12 8 13 8 7 -2 -9
-15 22 -55 35 -46 5 3 9 -3 9 -12 0 -10 3 -15 6 -11 10 10 33 -17 24 -28 -4
-5 -11 -31 -14 -56 -5 -37 -3 -48 9 -53 8 -3 15 -11 14 -18 0 -10 -2 -10 -6 0
-2 6 -8 12 -12 12 -11 0 -7 -31 7 -56 6 -12 8 -25 4 -29 -4 -3 -2 -6 3 -5 6 1
17 2 25 1 13 -1 13 -2 0 -11 -13 -8 -13 -10 2 -10 12 0 16 -5 11 -17 -7 -19
-5 -18 17 11 10 13 10 17 3 12 -7 -4 -13 -2 -13 3 0 19 -2 26 -11 44 -7 12 -6
17 2 17 7 0 10 3 7 6 -4 3 -15 1 -27 -5 -14 -8 -22 -8 -27 1 -4 6 -3 8 3 5 6
-4 16 0 23 7 9 12 7 19 -9 35 -12 12 -17 21 -12 21 6 0 8 8 7 18 -2 9 7 25 22
36 14 11 22 13 17 6 -6 -10 -4 -12 10 -7 9 4 23 3 29 -1 6 -5 18 -9 26 -9 8
-1 24 -4 35 -8 11 -5 -3 9 -32 31 -38 28 -52 45 -50 61 1 13 7 25 14 27 17 7
17 39 1 34 -7 -3 -13 -11 -13 -19 0 -8 -5 -14 -12 -14 -19 0 -28 -16 -14 -25
10 -5 6 -8 -12 -7 -15 1 -27 6 -27 11 0 5 -3 6 -7 3 -3 -4 -12 2 -20 13 -8 11
-21 20 -29 20 -8 0 -13 4 -10 8 3 5 -4 16 -15 26 -12 9 -18 24 -15 32 6 16 6
16 -17 3z m137 -171 c-3 -4 -9 -8 -15 -8 -5 0 -9 4 -9 8 0 5 7 9 15 9 8 0 12
-4 9 -9z m10 -164 c3 -8 2 -12 -4 -9 -6 3 -10 10 -10 16 0 14 7 11 14 -7z"/>
<path d="M695 1080 c-7 -11 30 -50 48 -50 6 1 1 7 -12 14 -13 7 -19 15 -13 17
6 3 5 9 -3 16 -9 8 -16 9 -20 3z"/>
<path d="M2110 1076 c0 -8 -5 -18 -12 -22 -8 -5 -9 -2 -5 10 4 10 3 15 -4 11
-5 -4 -7 -16 -3 -27 4 -15 3 -18 -6 -13 -9 5 -11 4 -6 -3 5 -9 13 -9 27 -1 12
6 18 13 15 16 -3 4 -1 12 5 19 7 8 7 14 -1 19 -5 3 -10 -1 -10 -9z"/>
<path d="M2065 1011 c3 -5 -5 -17 -17 -25 -12 -9 -17 -16 -10 -16 6 0 12 -5
12 -11 0 -5 -5 -7 -12 -3 -7 5 -8 3 -3 -5 9 -15 25 -2 29 23 1 10 8 21 15 25
10 6 9 10 -4 14 -9 4 -13 3 -10 -2z"/>
<path d="M1998 953 c10 -4 9 -9 -4 -24 -12 -14 -14 -23 -7 -30 8 -8 15 -5 25
10 8 12 19 18 24 13 5 -4 0 3 -10 16 -11 12 -24 22 -30 21 -6 0 -5 -3 2 -6z
m12 -33 c-6 -11 -13 -20 -16 -20 -2 0 0 9 6 20 6 11 13 20 16 20 2 0 0 -9 -6
-20z"/>
<path d="M1960 905 c0 -5 5 -17 10 -25 5 -8 10 -10 10 -5 0 6 -5 17 -10 25 -5
8 -10 11 -10 5z"/>
<path d="M589 892 c-1 -4 -1 -10 0 -14 0 -5 -3 -8 -7 -8 -5 0 -9 -7 -9 -15 0
-8 4 -12 8 -9 4 2 9 1 12 -3 2 -5 2 -2 1 5 -2 6 1 12 7 12 6 0 8 4 5 9 -4 5
-1 11 6 13 8 3 6 7 -5 11 -9 3 -18 3 -18 -1z"/>
<path d="M1783 845 c-32 -30 -61 -55 -65 -55 -4 0 -6 -9 -5 -19 1 -19 2 -19
28 -1 14 11 30 16 34 12 5 -4 5 1 2 11 -6 16 -2 17 23 13 17 -2 30 0 30 5 0 5
3 8 8 7 4 -1 17 3 28 10 12 6 25 8 29 4 5 -4 5 -2 2 4 -3 6 9 16 28 24 19 7
32 17 29 21 -2 4 -23 -3 -46 -16 -23 -13 -46 -21 -51 -18 -4 3 -15 -3 -22 -13
-8 -11 -15 -14 -15 -7 0 6 7 19 16 27 12 12 12 16 2 16 -10 0 -9 3 2 10 9 6
17 5 22 -3 5 -8 8 -6 8 6 0 30 -28 18 -87 -38z m-23 -38 c0 -2 -10 -12 -22
-23 l-23 -19 19 23 c18 21 26 27 26 19z"/>
<path d="M765 760 c-9 -15 23 -82 36 -74 7 4 9 3 6 -3 -4 -6 2 -20 12 -32 l18
-21 19 21 c12 14 14 19 5 17 -8 -2 -20 8 -28 22 -7 14 -13 21 -13 17 0 -4 -6
-2 -14 5 -8 7 -12 16 -9 21 2 4 -3 10 -11 13 -9 3 -13 10 -10 15 3 5 3 9 0 9
-3 0 -7 -4 -11 -10z"/>
<path d="M623 685 c-3 -9 -3 -18 -1 -21 3 -3 8 4 11 16 6 23 -1 27 -10 5z"/>
<path d="M665 649 c-8 -12 34 -61 47 -53 4 3 11 -2 14 -11 4 -9 13 -14 20 -11
7 3 18 -3 23 -12 6 -9 11 -12 11 -6 0 12 -29 40 -39 38 -3 -1 -5 2 -3 8 1 5
-2 7 -7 4 -5 -4 -14 2 -20 11 -6 11 -11 13 -11 5 0 -7 -4 -11 -10 -7 -5 3 -7
12 -4 19 7 17 -12 30 -21 15z"/>
<path d="M854 638 c-4 -6 4 -20 18 -32 14 -12 36 -30 49 -41 27 -22 49 -28 49
-13 0 6 -7 7 -15 4 -10 -4 -15 -1 -13 9 2 7 -14 30 -36 49 -44 41 -42 40 -52
24z m26 -23 c14 -19 14 -19 -2 -6 -10 7 -18 18 -18 24 0 6 1 8 3 6 1 -2 9 -13
17 -24z m55 -35 c3 -6 -1 -7 -9 -4 -18 7 -21 14 -7 14 6 0 13 -4 16 -10z"/>
<path d="M1816 632 c-4 -3 -13 -7 -21 -9 -33 -7 -41 -10 -72 -26 -18 -10 -35
-17 -38 -17 -17 1 -55 -14 -55 -22 0 -5 -6 -6 -12 -2 -10 5 -10 4 -2 -5 8 -9
17 -9 40 0 33 14 29 13 72 23 17 4 32 11 32 15 0 4 10 7 22 8 12 1 25 9 30 17
5 8 15 13 23 10 8 -4 15 -4 15 -1 0 8 -28 16 -34 9z"/>
<path d="M983 539 c-2 -23 3 -25 10 -4 4 8 3 16 -1 19 -4 3 -9 -4 -9 -15z"/>
<path d="M855 520 c3 -5 8 -10 11 -10 2 0 4 5 4 10 0 6 -5 10 -11 10 -5 0 -7
-4 -4 -10z"/>
<path d="M975 480 c3 -5 8 -10 11 -10 2 0 4 5 4 10 0 6 -5 10 -11 10 -5 0 -7
-4 -4 -10z"/>
<path d="M974 379 c-17 -28 -5 -71 27 -100 18 -16 38 -29 45 -29 16 0 39 29
30 37 -4 4 -11 1 -15 -6 -5 -8 -11 -9 -15 -3 -3 5 1 12 9 16 8 3 15 11 14 18
0 10 -2 10 -6 0 -6 -15 -23 -6 -19 11 1 7 1 9 -1 5 -3 -5 -12 -8 -21 -8 -14 0
-15 2 -3 9 12 8 12 12 2 25 -7 9 -18 13 -24 9 -5 -3 -7 -1 -3 5 3 6 2 13 -3
16 -5 4 -13 1 -17 -5z m46 -33 c0 -2 -7 -7 -16 -10 -8 -3 -12 -2 -9 4 6 10 25
14 25 6z"/>
</g>
</svg>
