<svg xmlns="http://www.w3.org/2000/svg" width="512" height="512" viewBox="0 0 512 512"><path d="M374.6 127.3C345.4 88.5 303.1 64 256 64s-89.4 24.5-118.6 63.3c6.4 15.6 15.8 30 28.1 42.3 24.2 24.2 56.3 37.5 90.5 37.5s66.3-13.3 90.5-37.5C358.8 157.3 368.3 143 374.6 127.3z"/><path d="M126.8 142.8c-1.7 2.8-3.4 5.7-5 8.6 -2.9-1.8-5.3-3.7-7.7-5.8 -1.2-1-3-3.9-4.5-7.3 5.4-11.3 1.2-25-9.9-31.3 -11.6-6.5-26.2-2.4-32.7 9.2 -6.5 11.6-2.4 26.2 9.2 32.7 1.3 0.7 2.5 1.3 3.8 1.7 2.8 6.3 7.3 14.3 13.5 19.5 4.2 3.5 8.8 7.1 15.2 10.7 -7.2 20.3-11.6 42.3-12.5 65.4 -11 0.2-18.6 2.1-25.5 4.1 -4.2 1.2-8.2 3.4-11.8 5.9 -1-0.1-1.9-0.2-2.9-0.2 -13.3 0-24 10.7-24 24s10.7 24 24 24c12.9 0 23.5-10.2 24-23 5-1.5 9.9-2.7 17.1-2.8 3.2 33 13.3 63.5 28.6 89.2 -14.2 11-22.9 23-26.6 36.3 0 0-0.7 0.4-1.9 1.4 -1 0.8-1.9 1.7-2.8 2.6 -8.9 9.9-8.1 25 1.8 33.9 9.9 8.9 25 8.1 33.9-1.8 8.1-9 8.1-22.4 0.6-31.4 3.1-5.6 6.2-9 13.7-15C171.4 425.2 207.7 445.6 248 448V222.9C194.8 220 149.2 188.1 126.8 142.8z"/><path d="M456 256.1c-1 0-2 0.1-2.9 0.2 -3.6-2.5-7.7-4.6-11.8-5.9 -6.9-2-14.4-3.9-25.5-4.1 -1-23.1-5.3-45.2-12.5-65.4 6.4-3.6 11-7.2 15.2-10.7 6.2-5.2 10.7-13.3 13.5-19.5 1.3-0.5 2.6-1 3.8-1.7 11.6-6.5 15.7-21.1 9.2-32.7 -6.5-11.6-21.1-15.7-32.7-9.2 -11.1 6.2-15.3 19.9-9.9 31.3 -1.6 3.4-3.4 6.4-4.5 7.4 -2.4 2-4.8 3.9-7.7 5.8 -1.6-2.9-3.3-5.8-5-8.6 -22.4 45.3-67.9 77.1-121.2 80V448c40.3-2.4 76.6-22.8 103.7-54.4 7.4 5.9 10.6 9.4 13.7 15 -7.5 9-7.5 22.4 0.6 31.4 8.9 9.9 24 10.7 33.9 1.8 9.9-8.9 10.7-24 1.8-33.9 -0.9-1-1.8-1.8-2.8-2.6 -1.1-0.9-1.9-1.4-1.9-1.4 -3.7-13.3-12.4-25.3-26.6-36.3 15.3-25.7 25.4-56.2 28.6-89.2 7.2 0.1 12 1.3 17.1 2.8 0.5 12.8 11 23 24 23 13.3 0 24-10.7 24-24S469.3 256.1 456 256.1z"/></svg>